<svg xmlns="http://www.w3.org/2000/svg" width="800" height="600" style="background: white;">
  <title>Skovlandbrug - Rust</title>
  <style>
    .label { font-family: sans-serif; font-size: 12px; }
    .title { font-family: sans-serif; font-size: 16px; font-weight: bold; }
  </style>
  <text x="400" y="20" class="title" text-anchor="middle">Skovlandbrug - Rust</text>
  <path d="M 141.47709734301486,560 L 40,402.0481566372851 L 695.0290647432306,285.5316775681587 L 760,325.33691401360136 L 619.6173190795473,550.5799567845805 L 411.2437903875639,542.7740895745994 L 391.39183296822716,542.3041115862512 L 241.27755494228578,552.5565483861495 L 141.47709734301486,560 Z" fill="#e8f5e9" stroke="#2e7d32" stroke-width="2"/>
  <path d="M 163.29800998209316,516.2489648145332 L 109.40825813989593,432.3681102700342 L 686.6835099337375,329.68246865009013 L 701.9606084048422,339.04216948351575 L 596.8504221505415,507.69073797390746 L 412.8163046022379,500.79664786244973 L 412.2379886386153,500.7789710070548 L 392.38603121927855,500.3089930187066 L 390.4567963424732,500.30763411301683 L 388.52953369799314,500.39485656383755 L 238.41525567205176,510.6472933637358 L 238.15321885019543,510.6660132064246 L 163.29800998209316,516.2489648145332 Z" fill="none" stroke="#ef6c00" stroke-width="1.5" stroke-dasharray="5,3"/>
  <path d="M 109.4099161973802,432.3678153352657 L 686.6819798737122,329.68274081714503 L 686.6819825314813,329.6827570699988 L 686.6819985233042,329.6828316683666 L 686.6820181563954,329.68290539305167 L 686.6820413832949,329.68297806460623 L 686.6820681480548,329.6830495098178 L 686.6820983860673,329.68311955478146 L 686.6821320247564,329.68318803252043 L 686.6821689828853,329.683254776751 L 686.6822091715962,329.68331962673227 L 686.6822524938904,329.6833824272659 L 686.6822988453208,329.68344302592516 L 686.6823481145118,329.68350127790455 L 686.68240018264,329.6835570418629 L 686.6824549242995,329.6836101833875 L 686.6825122075027,329.6836605756869 L 686.6825718941993,329.6837080961269 L 686.6826338409696,329.6837526303873 L 686.6826978981584,329.68379407176946 L 701.9584607535221,339.04267662410115 L 596.8495796994073,507.68915092964346 L 412.8163627904752,500.7950945571646 L 412.8163574335393,500.7950944878797 L 412.81635209184606,500.79509419341883 L 412.23803612822354,500.77741733802384 L 412.2380307759644,500.77741730545995 L 412.2380254273427,500.7774170477201 L 392.3860680080059,500.3074390593719 L 392.3860501595207,500.3074390746146 L 392.38603231415334,500.3074386242627 L 390.4567974373479,500.30607971857296 L 390.4567618437853,500.3060805673131 L 390.456726066964,500.3060813072759 L 388.52946342248396,500.3933037580966 L 388.5294456181679,500.39330500245353 L 388.5294277833665,500.39330578121593 L 238.4151497574251,510.6457425811141 L 238.41514733591757,510.64574280629006 L 238.41514490869403,510.6457429199173 L 238.15310808683768,510.6644627626062 L 238.1531056648105,510.6644629954035 L 238.15310323931908,510.6644631166521 L 163.2988174284132,516.2473458798116 L 109.4099161973802,432.3678153352657 Z" fill="#e3f2fd" fill-opacity="0.3" stroke="#1565c0" stroke-width="1"/>
  <path d="M 686.6819798737122,329.68274081714503 L 686.6819825314813,329.6827570699988 L 686.6819985233042,329.6828316683666 L 686.6820181563954,329.68290539305167 L 686.6820413832949,329.68297806460623 L 686.6820681480548,329.6830495098178 L 686.6820983860673,329.68311955478146 L 686.6821320247564,329.68318803252043 L 686.6821689828853,329.683254776751 L 686.6822091715962,329.68331962673227 L 686.6822524938904,329.6833824272659 L 686.6822988453208,329.68344302592516 L 686.6823481145118,329.68350127790455 L 686.68240018264,329.6835570418629 L 686.6824549242995,329.6836101833875 L 686.6825122075027,329.6836605756869 L 686.6825718941993,329.6837080961269 L 686.6826338409696,329.6837526303873 L 686.6826978981584,329.68379407176946 L 701.9584607535221,339.04267662410115 L 700.6165845448886,341.1957077407408 L 700.2563344416349,341.3262484886942 L 699.6000597320644,341.52822098344313 L 698.9346652135416,341.69774831944096 L 698.2617538797165,341.8344220912537 L 117.53472785744287,445.0143041713775 L 109.4099161973802,432.3678153352657 L 686.6819798737122,329.68274081714503 Z" fill="#ffcdd2" fill-opacity="0.4" stroke="#ffcdd2" stroke-width="0.5"/>
  <path d="M 660.6285703258002,405.35620060198926 L 150.30795623743515,496.0267194953708 L 117.53472785744287,445.0143041713775 L 698.2617538797165,341.8344220912537 L 698.9346652135416,341.69774831944096 L 699.6000597320644,341.52822098344313 L 700.2563344416349,341.3262484886942 L 700.6165845448886,341.1957077407408 L 660.6285703258002,405.35620060198926 Z" fill="#f8bbd9" fill-opacity="0.4" stroke="#f8bbd9" stroke-width="0.5"/>
  <path d="M 650.6701706428369,421.33438417134636 L 158.50126333256313,508.7798233267156 L 150.30795623743515,496.0267194953708 L 660.6285703258002,405.35620060198926 L 650.6701706428369,421.33438417134636 Z" fill="#e1bee7" fill-opacity="0.4" stroke="#e1bee7" stroke-width="0.5"/>
  <path d="M 610.8365719125427,485.2471184466963 L 504.0847922554371,504.21409525864465 L 412.8163627904752,500.7950945571646 L 412.8163574335393,500.7950944878797 L 412.81635209184606,500.79509419341883 L 412.23803612822354,500.77741733802384 L 412.2380307759644,500.77741730545995 L 412.2380254273427,500.7774170477201 L 392.3860680080059,500.3074390593719 L 392.3860501595207,500.3074390746146 L 392.38603231415334,500.3074386242627 L 390.4567974373479,500.30607971857296 L 390.4567618437853,500.3060805673131 L 390.456726066964,500.3060813072759 L 388.52946342248396,500.3933037580966 L 388.5294456181679,500.39330500245353 L 388.5294277833665,500.39330578121593 L 238.4151497574251,510.6457425811141 L 238.41514733591757,510.64574280629006 L 238.41514490869403,510.6457429199173 L 238.15310808683768,510.6644627626062 L 238.1531056648105,510.6644629954035 L 238.15310323931908,510.6644631166521 L 163.2988174284132,516.2473458798116 L 158.50126333256313,508.7798233267156 L 650.6701706428369,421.33438417134636 L 610.8365719125427,485.2471184466963 Z" fill="#d1c4e9" fill-opacity="0.4" stroke="#d1c4e9" stroke-width="0.5"/>
  <path d="M 604.1976387905671,495.8992408258058 L 548.1156468185183,505.863532238409 L 504.0847922554371,504.21409525864465 L 610.8365719125427,485.2471184466963 L 604.1976387905671,495.8992408258058 Z" fill="#c5cae9" fill-opacity="0.4" stroke="#c5cae9" stroke-width="0.5"/>
  <path d="M 597.5587056685916,506.55136320560814 L 592.1465013815995,507.51296921886615 L 548.1156468185183,505.863532238409 L 604.1976387905671,495.8992408258058 L 597.5587056685916,506.55136320560814 Z" fill="#bbdefb" fill-opacity="0.4" stroke="#bbdefb" stroke-width="0.5"/>
  <path d="M 596.8495796994073,507.68915092964346 L 592.1465013815995,507.51296921886615 L 597.5587056685916,506.55136320560814 L 596.8495796994073,507.68915092964346 Z" fill="#ffcdd2" fill-opacity="0.4" stroke="#ffcdd2" stroke-width="0.5"/>
  <path d="M 686.6819798737122,329.68274081714503 L 686.6819825314813,329.6827570699988 L 686.6819985233042,329.6828316683666 L 686.6820181563954,329.68290539305167 L 686.6820413832949,329.68297806460623 L 686.6820681480548,329.6830495098178 L 686.6820983860673,329.68311955478146 L 686.6821320247564,329.68318803252043 L 686.6821689828853,329.683254776751 L 686.6822091715962,329.68331962673227 L 686.6822524938904,329.6833824272659 L 686.6822988453208,329.68344302592516 L 686.6823481145118,329.68350127790455 L 686.68240018264,329.6835570418629 L 686.6824549242995,329.6836101833875 L 686.6825122075027,329.6836605756869 L 686.6825718941993,329.6837080961269 L 686.6826338409696,329.6837526303873 L 686.6826978981584,329.68379407176946 L 701.9584607535221,339.04267662410115 L 700.6165845448886,341.1957077407408 L 700.2563344416349,341.3262484886942 L 699.6000597320644,341.52822098344313 L 698.9346652135416,341.69774831944096 L 698.2617538797165,341.8344220912537 L 117.53472785744287,445.0143041713775 L 109.4099161973802,432.3678153352657 L 686.6819798737122,329.68274081714503 Z" fill="#81c784" fill-opacity="0.5" stroke="#81c784" stroke-width="0.5"/>
  <path d="M 650.6701706428369,421.33438417134636 L 158.50126333256313,508.7798233267156 L 150.30795623743515,496.0267194953708 L 660.6285703258002,405.35620060198926 L 650.6701706428369,421.33438417134636 Z" fill="#81c784" fill-opacity="0.5" stroke="#81c784" stroke-width="0.5"/>
  <path d="M 604.1976387905671,495.8992408258058 L 548.1156468185183,505.863532238409 L 504.0847922554371,504.21409525864465 L 610.8365719125427,485.2471184466963 L 604.1976387905671,495.8992408258058 Z" fill="#81c784" fill-opacity="0.5" stroke="#81c784" stroke-width="0.5"/>
  <path d="M 597.5587056685916,506.55136320560814 L 592.1465013815995,507.51296921886615 L 548.1156468185183,505.863532238409 L 604.1976387905671,495.8992408258058 L 597.5587056685916,506.55136320560814 Z" fill="#81c784" fill-opacity="0.5" stroke="#81c784" stroke-width="0.5"/>
  <path d="M 116.40298341806815,438.11088029432096 L 695.6706513519226,335.1903734535342" fill="none" stroke="#4caf50" stroke-width="1.5"/>
  <path d="M 133.92134204752563,470.52051183337414 L 680.5453696910339,373.3998334646607" fill="none" stroke="#4caf50" stroke-width="1.5"/>
  <path d="M 154.40460978508577,502.4032714110432 L 655.6493704842319,413.3452923870142" fill="none" stroke="#4caf50" stroke-width="1.5"/>
  <path d="M 351.35726539830154,502.9320732495026 L 630.7533712776032,453.2907513086749" fill="none" stroke="#4caf50" stroke-width="1.5"/>
  <path d="M 526.1002195371509,505.0388137485268 L 607.5171053515548,490.57317963625104" fill="none" stroke="#4caf50" stroke-width="1.5"/>
  <path d="M 574.5784281857394,505.8980673161376 L 600.8781722297525,501.2253020153605" fill="none" stroke="#4caf50" stroke-width="1.5"/>
  <circle cx="116.40298341806815" cy="438.11088029432096" r="2" fill="#1b5e20"/>
  <circle cx="129.74508454913976" cy="435.73996552848007" r="2" fill="#1b5e20"/>
  <circle cx="143.08720228087537" cy="433.3690655951523" r="2" fill="#1b5e20"/>
  <circle cx="156.42933661327498" cy="430.9981804957234" r="2" fill="#1b5e20"/>
  <circle cx="169.77148754599216" cy="428.6273102274219" r="2" fill="#1b5e20"/>
  <circle cx="183.11365507902693" cy="426.2564547937121" r="2" fill="#1b5e20"/>
  <circle cx="196.45583921203286" cy="423.88561418905124" r="2" fill="#1b5e20"/>
  <circle cx="209.79803994552955" cy="421.5147884210606" r="2" fill="#1b5e20"/>
  <circle cx="223.14025727917064" cy="419.14397748489023" r="2" fill="#1b5e20"/>
  <circle cx="236.48249121278286" cy="416.77318138331157" r="2" fill="#1b5e20"/>
  <circle cx="249.82474174653944" cy="414.40240011286033" r="2" fill="#1b5e20"/>
  <circle cx="263.167008880094" cy="412.03163367492226" r="2" fill="#1b5e20"/>
  <circle cx="276.50929261344646" cy="409.6608820708831" r="2" fill="#1b5e20"/>
  <circle cx="289.8515929467701" cy="407.29014530074267" r="2" fill="#1b5e20"/>
  <circle cx="303.19390987971843" cy="404.91942336172974" r="2" fill="#1b5e20"/>
  <circle cx="316.5362434124647" cy="402.5487162580013" r="2" fill="#1b5e20"/>
  <circle cx="329.8785935448357" cy="400.1780239854004" r="2" fill="#1b5e20"/>
  <circle cx="343.2209602764851" cy="397.80734654739115" r="2" fill="#1b5e20"/>
  <circle cx="356.5633436077591" cy="395.43668394120215" r="2" fill="#1b5e20"/>
  <circle cx="369.90574353831147" cy="393.0660361696049" r="2" fill="#1b5e20"/>
  <circle cx="383.24816006814217" cy="390.6954032319064" r="2" fill="#1b5e20"/>
  <circle cx="396.5905931974243" cy="388.3247851260283" r="2" fill="#1b5e20"/>
  <circle cx="409.9330429258116" cy="385.95418185543474" r="2" fill="#1b5e20"/>
  <circle cx="423.27550925330394" cy="383.58359341804714" r="2" fill="#1b5e20"/>
  <circle cx="436.61799217955496" cy="381.213019811787" r="2" fill="#1b5e20"/>
  <circle cx="449.9604917052575" cy="378.8424610401185" r="2" fill="#1b5e20"/>
  <circle cx="463.3030078297187" cy="376.47191710304173" r="2" fill="#1b5e20"/>
  <circle cx="476.6455405529386" cy="374.1013879970924" r="2" fill="#1b5e20"/>
  <circle cx="489.98808987509034" cy="371.7308737264276" r="2" fill="#1b5e20"/>
  <circle cx="503.3306557956543" cy="369.36037429174024" r="2" fill="#1b5e20"/>
  <circle cx="516.6732383151502" cy="366.98988968679464" r="2" fill="#1b5e20"/>
  <circle cx="530.0158374330583" cy="364.6194199157478" r="2" fill="#1b5e20"/>
  <circle cx="543.3584531495519" cy="362.24896497929274" r="2" fill="#1b5e20"/>
  <circle cx="556.7010854644577" cy="359.87852487604357" r="2" fill="#1b5e20"/>
  <circle cx="570.0437343777758" cy="357.50809960738616" r="2" fill="#1b5e20"/>
  <circle cx="583.3863998893329" cy="355.1376891726276" r="2" fill="#1b5e20"/>
  <circle cx="596.729081999129" cy="352.7672935717678" r="2" fill="#1b5e20"/>
  <circle cx="610.0717807069909" cy="350.39691280480696" r="2" fill="#1b5e20"/>
  <circle cx="623.4144960130918" cy="348.0265468717449" r="2" fill="#1b5e20"/>
  <circle cx="636.7572279170854" cy="345.65619577050313" r="2" fill="#1b5e20"/>
  <circle cx="650.0999764191448" cy="343.2858595052388" r="2" fill="#1b5e20"/>
  <circle cx="663.4427415190968" cy="340.91553807525895" r="2" fill="#1b5e20"/>
  <circle cx="676.7855232167682" cy="338.54523147640657" r="2" fill="#1b5e20"/>
  <circle cx="690.1283215125054" cy="336.17493971283875" r="2" fill="#1b5e20"/>
  <circle cx="154.40460978508577" cy="502.4032714110432" r="2" fill="#1b5e20"/>
  <circle cx="167.7465316539287" cy="500.03243851779257" r="2" fill="#1b5e20"/>
  <circle cx="181.08847012222319" cy="497.66162045497657" r="2" fill="#1b5e20"/>
  <circle cx="194.43042518979595" cy="495.29081722536654" r="2" fill="#1b5e20"/>
  <circle cx="207.77239685647382" cy="492.92002882757686" r="2" fill="#1b5e20"/>
  <circle cx="221.11438512225678" cy="490.5492552650717" r="2" fill="#1b5e20"/>
  <circle cx="234.45638998714483" cy="488.17849653300107" r="2" fill="#1b5e20"/>
  <circle cx="247.79841145113798" cy="485.80775263482934" r="2" fill="#1b5e20"/>
  <circle cx="261.140449514063" cy="483.43702356778505" r="2" fill="#1b5e20"/>
  <circle cx="274.4825041757467" cy="481.0663093346396" r="2" fill="#1b5e20"/>
  <circle cx="287.82457543618904" cy="478.6956099333144" r="2" fill="#1b5e20"/>
  <circle cx="301.1666632953901" cy="476.32492536519527" r="2" fill="#1b5e20"/>
  <circle cx="314.50876775334973" cy="473.9542556295893" r="2" fill="#1b5e20"/>
  <circle cx="327.8508888097217" cy="471.5836007264964" r="2" fill="#1b5e20"/>
  <circle cx="341.19302646485227" cy="469.2129606566095" r="2" fill="#1b5e20"/>
  <circle cx="354.5351807183951" cy="466.84233542062145" r="2" fill="#1b5e20"/>
  <circle cx="367.877351570177" cy="464.47172501783945" r="2" fill="#1b5e20"/>
  <circle cx="381.2195390201979" cy="462.101129445492" r="2" fill="#1b5e20"/>
  <circle cx="394.5617430688042" cy="459.7305487070434" r="2" fill="#1b5e20"/>
  <circle cx="407.9039637153032" cy="457.3599828024936" r="2" fill="#1b5e20"/>
  <circle cx="421.24620096004116" cy="454.9894317297642" r="2" fill="#1b5e20"/>
  <circle cx="434.58845480301824" cy="452.6188954923192" r="2" fill="#1b5e20"/>
  <circle cx="447.9307252435414" cy="450.2483740860018" r="2" fill="#1b5e20"/>
  <circle cx="461.2730122823036" cy="447.87786751358317" r="2" fill="#1b5e20"/>
  <circle cx="474.61531591878526" cy="445.50737577437053" r="2" fill="#1b5e20"/>
  <circle cx="487.95763615281305" cy="443.136898867671" r="2" fill="#1b5e20"/>
  <circle cx="501.2999729849067" cy="440.7664367955632" r="2" fill="#1b5e20"/>
  <circle cx="514.6423264145465" cy="438.3959895566614" r="2" fill="#1b5e20"/>
  <circle cx="527.9846964415592" cy="436.02555715027273" r="2" fill="#1b5e20"/>
  <circle cx="541.3270830664646" cy="433.65513957639723" r="2" fill="#1b5e20"/>
  <circle cx="554.6694862883966" cy="431.2847368364205" r="2" fill="#1b5e20"/>
  <circle cx="568.0119061078747" cy="428.914348928957" r="2" fill="#1b5e20"/>
  <circle cx="581.3543425247257" cy="426.54397585747085" r="2" fill="#1b5e20"/>
  <circle cx="594.6967955387765" cy="424.1736176171122" r="2" fill="#1b5e20"/>
  <circle cx="608.0392651498539" cy="421.8032742113452" r="2" fill="#1b5e20"/>
  <circle cx="621.3817513579578" cy="419.4329456387842" r="2" fill="#1b5e20"/>
  <circle cx="634.7242541632615" cy="417.06263190081484" r="2" fill="#1b5e20"/>
  <circle cx="648.0667735655917" cy="414.6923329953587" r="2" fill="#1b5e20"/>
  <circle cx="526.1002195371509" cy="505.0388137485268" r="2" fill="#1b5e20"/>
  <circle cx="532.0300200915938" cy="503.9852221687219" r="2" fill="#1b5e20"/>
  <circle cx="537.9598239247719" cy="502.9316335175901" r="2" fill="#1b5e20"/>
  <circle cx="543.8896310363384" cy="501.8780477985956" r="2" fill="#1b5e20"/>
  <circle cx="549.8194414266402" cy="500.8244650061956" r="2" fill="#1b5e20"/>
  <circle cx="555.7492550953306" cy="499.77088514454726" r="2" fill="#1b5e20"/>
  <circle cx="561.6790720425828" cy="498.7173082150362" r="2" fill="#1b5e20"/>
  <circle cx="567.6088922685701" cy="497.66373421419826" r="2" fill="#1b5e20"/>
  <circle cx="573.5387157727728" cy="496.61016314272615" r="2" fill="#1b5e20"/>
  <circle cx="579.4685425558838" cy="495.55659500131287" r="2" fill="#1b5e20"/>
  <circle cx="585.3983726172103" cy="494.50302979065117" r="2" fill="#1b5e20"/>
  <circle cx="591.3282059572717" cy="493.44946750866256" r="2" fill="#1b5e20"/>
  <circle cx="597.2580425755486" cy="492.3959081574256" r="2" fill="#1b5e20"/>
  <circle cx="603.1878824725607" cy="491.3423517383259" r="2" fill="#1b5e20"/>
  <circle cx="574.5784281857394" cy="505.8980673161376" r="2" fill="#1b5e20"/>
  <circle cx="580.5082365019974" cy="504.84449199680785" r="2" fill="#1b5e20"/>
  <circle cx="586.4380480968173" cy="503.7909196103082" r="2" fill="#1b5e20"/>
  <circle cx="592.3678629698526" cy="502.7373501517888" r="2" fill="#1b5e20"/>
  <circle cx="598.2976811216229" cy="501.6837836226353" r="2" fill="#1b5e20"/>

  <g transform="translate(10, 500)">
    <rect x="0" y="0" width="150" height="90" fill="white" fill-opacity="0.9" stroke="#ccc"/>
    <text x="5" y="15" class="label">Legend:</text>
    <rect x="5" y="22" width="12" height="12" fill="#e3f2fd" stroke="#1565c0"/>
    <text x="22" y="32" class="label">Headland</text>
    <line x1="5" y1="45" x2="17" y2="45" stroke="#4caf50" stroke-width="2"/>
    <text x="22" y="48" class="label">Tree rows</text>
    <circle cx="11" cy="60" r="3" fill="#1b5e20"/>
    <text x="22" y="64" class="label">Trees (101)</text>
    <rect x="5" y="72" width="12" height="12" fill="#81c784" fill-opacity="0.5"/>
    <text x="22" y="82" class="label">Ground cover</text>
  </g>
</svg>