<svg xmlns="http://www.w3.org/2000/svg" width="800" height="600" style="background: white;">
  <title>Test 4 - Rust</title>
  <style>
    .label { font-family: sans-serif; font-size: 12px; }
    .title { font-family: sans-serif; font-size: 16px; font-weight: bold; }
  </style>
  <text x="400" y="20" class="title" text-anchor="middle">Test 4 - Rust</text>
  <path d="M 270.2439024390244,339.15539225136365 L 406.8292682926829,355.47372088135097 L 760,442.5054495173095 L 720.9756097560976,475.14262679081946 L 590.2439024390244,502.34039078689204 L 457.5609756097561,560 L 381.4634146341463,541.5053566154749 L 248.78048780487805,517.5711847889391 L 141.46341463414635,508.86786986560355 L 133.65853658536585,506.6920428340674 L 47.80487804878049,506.6920428340674 L 40,481.67008050541244 L 65.3658536585366,384.8468082965551 L 182.4390243902439,351.1221628576759 L 270.2439024390244,339.15539225136365 Z" fill="#e8f5e9" stroke="#2e7d32" stroke-width="2"/>
  <path d="M 270.4263595794921,361.2123147103845 L 402.89913789883536,377.03929820616395 L 712.8455531257924,453.41927502794965 L 711.147677690033,454.8392552308597 L 585.7874494122295,480.91952277392875 L 584.6968655382715,481.175704594227 L 583.6208238553226,481.48737205851694 L 582.5621453303954,481.8537080940515 L 581.5236054093534,482.2737523107348 L 455.58379201837346,537.0030275683416 L 386.6305663911954,520.2447333232498 L 385.34749273782177,519.9733456247221 L 252.66456590855347,496.03917379818637 L 251.61019302189834,495.8754172661117 L 250.54909028334993,495.7632595026073 L 145.3205121086865,487.2293195827867 L 139.53402166250277,485.61617428435864 L 138.57331721246405,485.3716654583691 L 137.60252334754966,485.17092463640665 L 136.6236329831405,485.01436391303207 L 135.63865565575236,484.902304686828 L 134.64961339723126,484.8349770013556 L 133.65853658536585,484.8125190721941 L 63.89939636298958,484.8125190721941 L 62.755444598391776,481.1450795830104 L 83.37798310521495,402.4273795461267 L 186.968319228025,372.58666254059085 L 270.4263595794921,361.2123147103845 Z" fill="none" stroke="#ef6c00" stroke-width="1.5" stroke-dasharray="5,3"/>
  <path d="M 397.6357710235487,405.9206670073636 L 582.9346743321354,451.5838050351233 L 579.819213019477,452.2319536997374 L 579.4539302477668,452.3173514045674 L 579.0867429619559,452.39414813912657 L 577.9961590879977,452.6503299594249 L 577.9660985731497,452.6581744553274 L 577.9357029189908,452.6645989508487 L 577.2703147751852,452.83974397343997 L 576.6045565899149,453.0134781033689 L 576.5749171975506,453.0227881498776 L 576.5448733891252,453.0306963507076 L 575.4688317061763,453.3423638149975 L 575.439212107723,453.35173667607916 L 575.4091851559435,453.3597085430693 L 574.7536340351027,453.5686818086681 L 574.097641039347,453.7762650060783 L 574.0685170488306,453.7870799325669 L 574.0389174012956,453.79651555782414 L 572.9802388763686,454.1628515933587 L 572.9511378405863,454.1737282489373 L 572.9215582670558,454.18322660089507 L 572.2775627471567,454.42548026883503 L 571.633054773659,454.6663683087522 L 571.6045224989656,454.678659776362 L 571.5754446020618,454.68959809383404 L 570.5369046810197,455.1096423105173 L 570.192696661484,455.2587901789968 L 569.8450813067315,455.3998143821551 L 452.9358792049775,506.20468481704796 L 393.5505951620376,491.77176953654305 L 393.12144299865093,491.6785602091451 L 392.69415056479335,491.57716607401363 L 391.4110769114197,491.30577837548606 L 390.9793240187291,491.22547262470897 L 390.54918478950253,491.13693002245935 L 257.86625796023424,467.2027581959236 L 257.51318297088955,467.14797841436496 L 257.16156869206003,467.08449488539037 L 256.1071958054049,466.92073835331576 L 255.39869040654602,466.8284438386519 L 254.69021534725903,466.73592640843174 L 253.6291126087106,466.6237686449273 L 253.2729780541526,466.594942897962 L 252.91766403748738,466.5573299092652 L 150.48607076215873,458.25022286645117 L 147.40267497155725,457.3906404526253 L 147.08082011463196,457.30937171693097 L 146.76122544806825,457.21962536705865 L 145.80052099802953,456.97511654106904 L 145.15339130922385,456.82722575102395 L 144.50682420523833,456.67689311665896 L 143.53603034032392,456.4761522946965 L 142.882865794952,456.35772632454143 L 142.2301528347217,456.23683556631653 L 141.25126247031255,456.080274842942 L 140.59340405011886,455.99155682923026 L 139.93588504946328,455.90035609501166 L 138.95090772207513,455.7882968688076 L 138.28970581761544,455.72946892585855 L 137.62873066150075,455.6681454472425 L 136.6396884029797,455.6008177617701 L 135.9765004730483,455.5720006663625 L 135.31342596122568,455.5406803231898 L 134.32234914936026,455.5182223940283 L 133.99039318438793,455.5188489412551 L 133.65853658536585,455.5107023192615 L 99.76184496453138,455.5107023192615 L 107.500451314417,425.9718900553902 L 193.0341078999243,401.3326646590298 L 270.6707125036374,390.75170994838726 L 397.6357710235487,405.9206670073636 Z" fill="#e3f2fd" fill-opacity="0.3" stroke="#1565c0" stroke-width="1"/>
  <path d="M 99.76184496453138,455.5107023192615 L 107.500451314417,425.9718900553902 L 129.04936016704332,419.7644105267718 L 105.71387189836683,455.5107023192615 L 99.76184496453138,455.5107023192615 Z" fill="#ffcdd2" fill-opacity="0.4" stroke="#ffcdd2" stroke-width="0.5"/>
  <path d="M 105.71387189836683,455.5107023192615 L 129.04936016704332,419.7644105267718 L 150.59803450269106,413.55699855396097 L 123.21029404185329,455.5107023192615 L 105.71387189836683,455.5107023192615 Z" fill="#f8bbd9" fill-opacity="0.4" stroke="#f8bbd9" stroke-width="0.5"/>
  <path d="M 139.93588504946328,455.90035609501166 L 138.95090772207513,455.7882968688076 L 138.28970581761544,455.72946892585855 L 137.62873066150075,455.6681454472425 L 136.6396884029797,455.6008177617701 L 135.9765004730483,455.5720006663625 L 135.31342596122568,455.5406803231898 L 134.32234914936026,455.5182223940283 L 133.99039318438793,455.5188489412551 L 133.65853658536585,455.5107023192615 L 123.21029404185329,455.5107023192615 L 150.59803450269106,413.55699855396097 L 172.1467088389849,407.34958658115005 L 140.40946537272396,455.9660437371996 L 139.93588504946328,455.90035609501166 Z" fill="#e1bee7" fill-opacity="0.4" stroke="#e1bee7" stroke-width="0.5"/>
  <path d="M 150.48607076215873,458.25022286645117 L 147.40267497155725,457.3906404526253 L 147.08082011463196,457.30937171693097 L 146.76122544806825,457.21962536705865 L 145.80052099802953,456.97511654106904 L 145.15339130922385,456.82722575102395 L 144.50682420523833,456.67689311665896 L 143.53603034032392,456.4761522946965 L 142.882865794952,456.35772632454143 L 142.2301528347217,456.23683556631653 L 141.25126247031255,456.080274842942 L 140.59340405011886,455.99155682923026 L 140.40946537272396,455.9660437371996 L 172.1467088389849,407.34958658115005 L 193.0341078999243,401.3326646590298 L 193.62346478044824,401.25234225771936 L 156.11665999889374,458.70685842172884 L 150.48607076215873,458.25022286645117 Z" fill="#d1c4e9" fill-opacity="0.4" stroke="#d1c4e9" stroke-width="0.5"/>
  <path d="M 156.11665999889374,458.70685842172884 L 193.62346478044824,401.25234225771936 L 212.82856737242804,398.6349129961112 L 172.7333580177974,460.0544571928216 L 156.11665999889374,458.70685842172884 Z" fill="#c5cae9" fill-opacity="0.4" stroke="#c5cae9" stroke-width="0.5"/>
  <path d="M 172.7333580177974,460.0544571928216 L 212.82856737242804,398.6349129961112 L 231.34112067112756,396.1118700446152 L 230.96355981264657,396.8823770326651 L 228.8771856428808,400.65901706535317 L 226.60801365931184,404.3287344418244 L 189.35005603573185,461.402055962622 L 172.7333580177974,460.0544571928216 Z" fill="#bbdefb" fill-opacity="0.4" stroke="#bbdefb" stroke-width="0.5"/>
  <path d="M 189.35005603573185,461.402055962622 L 226.60801365931184,404.3287344418244 L 228.8771856428808,400.65901706535317 L 230.96355981264657,396.8823770326651 L 231.34112067112756,396.1118700446152 L 248.43363019993635,393.7823623318659 L 248.1631819972501,394.50645624202116 L 246.17267103699166,399.12990363568144 L 243.95769592352352,403.65011214046945 L 241.52359272567884,408.05619217968245 L 238.87622541140735,412.33752911911427 L 205.96675405431247,462.74965473242247 L 189.35005603573185,461.402055962622 Z" fill="#ffcdd2" fill-opacity="0.4" stroke="#ffcdd2" stroke-width="0.5"/>
  <path d="M 205.96675405431247,462.74965473242247 L 238.87622541140735,412.33752911911427 L 241.52359272567884,408.05619217968245 L 243.95769592352352,403.65011214046945 L 246.17267103699166,399.12990363568144 L 248.1631819972501,394.50645624202116 L 248.43363019993635,393.7823623318659 L 264.73217904793864,391.56106210724124 L 263.7709606801914,394.5787570870666 L 261.758101832899,399.96795479327363 L 259.4832321641245,405.25189467174255 L 256.95183203440047,410.4178472495661 L 254.16999980847686,415.45336729401174 L 251.14443716350286,420.34632379511186 L 222.58345207224693,464.09725350351516 L 205.96675405431247,462.74965473242247 Z" fill="#f8bbd9" fill-opacity="0.4" stroke="#f8bbd9" stroke-width="0.5"/>
  <path d="M 222.58345207224693,464.09725350351516 L 251.14443716350286,420.34632379511186 L 254.16999980847686,415.45336729401174 L 256.95183203440047,410.4178472495661 L 259.4832321641245,405.25189467174255 L 261.758101832899,399.96795479327363 L 263.7709606801914,394.5787570870666 L 264.73217904793864,391.56106210724124 L 270.6707125036374,390.75170994838726 L 279.937465300728,391.8588411297578 L 279.58173660404964,393.1999493821204 L 277.617487871873,399.3666059253662 L 275.35302166854785,405.429453344526 L 272.7937932912573,411.37388570780354 L 269.94596814527745,417.18558235737044 L 266.81640689127494,422.85054240704875 L 263.4126489155984,428.3551184724017 L 239.2001500911506,465.4448522733156 L 222.58345207224693,464.09725350351516 Z" fill="#e1bee7" fill-opacity="0.4" stroke="#e1bee7" stroke-width="0.5"/>
  <path d="M 255.39869040654602,466.8284438386519 L 254.69021534725903,466.73592640843174 L 253.6291126087106,466.6237686449273 L 253.2729780541526,466.594942897962 L 252.91766403748738,466.5573299092652 L 239.2001500911506,465.4448522733156 L 263.4126489155984,428.3551184724017 L 266.81640689127494,422.85054240704875 L 269.94596814527745,417.18558235737044 L 272.7937932912573,411.37388570780354 L 275.35302166854785,405.429453344526 L 277.617487871873,399.3666059253662 L 279.58173660404964,393.1999493821204 L 279.937465300728,391.8588411297578 L 294.62502011147944,393.61361437825974 L 293.6465136549337,397.3026141603465 L 291.4640150638777,404.15445476366574 L 288.9479415045198,410.8909518957784 L 286.10435441839013,417.4958767438645 L 282.94010425647747,423.95331746646707 L 279.4628139737499,430.24771752137804 L 275.6808606676939,436.3639131483993 L 255.7624204297699,466.8758256739071 L 255.39869040654602,466.8284438386519 Z" fill="#d1c4e9" fill-opacity="0.4" stroke="#d1c4e9" stroke-width="0.5"/>
  <path d="M 257.86625796023424,467.2027581959236 L 257.51318297088955,467.14797841436496 L 257.16156869206003,467.08449488539037 L 256.1071958054049,466.92073835331576 L 255.7624204297699,466.8758256739071 L 275.6808606676939,436.3639131483993 L 279.4628139737499,430.24771752137804 L 282.94010425647747,423.95331746646707 L 286.10435441839013,417.4958767438645 L 288.9479415045198,410.8909518957784 L 291.4640150638777,404.15445476366574 L 293.6465136549337,397.3026141603465 L 294.62502011147944,393.61361437825974 L 309.31257492190775,395.36838762805394 L 307.7112907058178,401.40527893728034 L 305.31054225555926,408.94230360196536 L 302.5428613401687,416.35245044703083 L 299.41491554584604,423.6178677799256 L 295.9342403673544,430.7210525742714 L 292.1092210565479,437.64489263570727 L 287.94907241978945,444.37270782568913 L 271.4462676943156,469.6524048394304 L 257.86625796023424,467.2027581959236 Z" fill="#c5cae9" fill-opacity="0.4" stroke="#c5cae9" stroke-width="0.5"/>
  <path d="M 271.4462676943156,469.6524048394304 L 287.94907241978945,444.37270782568913 L 292.1092210565479,437.64489263570727 L 295.9342403673544,430.7210525742714 L 299.41491554584604,423.6178677799256 L 302.5428613401687,416.35245044703083 L 305.31054225555926,408.94230360196536 L 307.7112907058178,401.40527893728034 L 309.31257492190775,395.36838762805394 L 323.9979041168683,397.1228949745819 L 323.98846670767153,397.16713084502595 L 321.7760677563789,405.5079437155065 L 319.1570694472409,413.73015244026493 L 316.13778117581757,421.81394899828325 L 312.7254766729789,429.73985881727884 L 308.92837647823137,437.48878768336806 L 304.75562813934596,445.04206774874433 L 300.21728417188496,452.38150250297895 L 287.09941182873115,472.4760163638004 L 271.4462676943156,469.6524048394304 Z" fill="#bbdefb" fill-opacity="0.4" stroke="#bbdefb" stroke-width="0.5"/>
  <path d="M 287.09941182873115,472.4760163638004 L 300.21728417188496,452.38150250297895 L 304.75562813934596,445.04206774874433 L 308.92837647823137,437.48878768336806 L 312.7254766729789,429.73985881727884 L 316.13778117581757,421.81394899828325 L 319.1570694472409,413.73015244026493 L 321.7760677563789,405.5079437155065 L 323.98846670767153,397.16713084502595 L 323.9979041168683,397.1228949745819 L 338.60179838158575,398.86767300680725 L 338.237610337857,400.57472788286077 L 335.840844807263,409.61060849373257 L 333.00359663892243,418.5180012785645 L 329.7327010117895,427.2754475508279 L 326.0360378001117,435.8618498533399 L 321.9225125894314,444.2565227911724 L 317.40203522182094,452.43924286307356 L 312.48549592398047,460.3902971789766 L 302.7525559621775,475.2996278894626 L 287.09941182873115,472.4760163638004 Z" fill="#ffcdd2" fill-opacity="0.4" stroke="#ffcdd2" stroke-width="0.5"/>
  <path d="M 302.7525559621775,475.2996278894626 L 312.48549592398047,460.3902971789766 L 317.40203522182094,452.43924286307356 L 321.9225125894314,444.2565227911724 L 326.0360378001117,435.8618498533399 L 329.7327010117895,427.2754475508279 L 333.00359663892243,418.5180012785645 L 335.840844807263,409.61060849373257 L 338.237610337857,400.57472788286077 L 338.60179838158575,398.86767300680725 L 353.20569264662623,400.6124510390325 L 352.4867539677193,403.9823249219879 L 349.90562185814713,413.71327327066643 L 346.85012383060405,423.3058501168641 L 343.3276208474384,432.7369461020803 L 339.3465989272446,441.9838408894009 L 334.9166487003084,451.02425790026905 L 330.04844230461896,459.83641797740285 L 324.753707676076,468.3990918562664 L 318.4057000962699,478.1232394138326 L 302.7525559621775,475.2996278894626 Z" fill="#f8bbd9" fill-opacity="0.4" stroke="#f8bbd9" stroke-width="0.5"/>
  <path d="M 318.4057000962699,478.1232394138326 L 324.753707676076,468.3990918562664 L 330.04844230461896,459.83641797740285 L 334.9166487003084,451.02425790026905 L 339.3465989272446,441.9838408894009 L 343.3276208474384,432.7369461020803 L 346.85012383060405,423.3058501168641 L 349.90562185814713,413.71327327066643 L 352.4867539677193,403.9823249219879 L 353.20569264662623,400.6124510390325 L 367.80958691166666,402.35722907125785 L 366.7358975979048,407.38992196111496 L 363.9703989090312,417.8159380488926 L 360.6966510222856,428.09369895516375 L 356.9225406834104,438.19844465333273 L 352.6571600543774,448.1058319254619 L 347.9107848111853,457.7919930080734 L 342.694849387417,467.23359309043985 L 337.0219194281715,476.407886532264 L 334.05884422971627,480.9468509382026 L 318.4057000962699,478.1232394138326 Z" fill="#e1bee7" fill-opacity="0.4" stroke="#e1bee7" stroke-width="0.5"/>
  <path d="M 334.05884422971627,480.9468509382026 L 337.0219194281715,476.407886532264 L 342.694849387417,467.23359309043985 L 347.9107848111853,457.7919930080734 L 352.6571600543774,448.1058319254619 L 356.9225406834104,438.19844465333273 L 360.6966510222856,428.09369895516375 L 363.9703989090312,417.8159380488926 L 366.7358975979048,407.38992196111496 L 367.80958691166666,402.35722907125785 L 382.41348117670714,404.10200710477545 L 380.9850412280902,410.79751899894984 L 378.03517595959227,421.91860282711866 L 374.5431782139672,432.8815477934633 L 370.5174605190592,443.65994320458515 L 365.9677211815103,454.227822961523 L 360.9049209220623,464.55972811717004 L 355.34125647021506,474.63076820476914 L 349.69195544752,483.76684880062817 L 334.05884422971627,480.9468509382026 Z" fill="#d1c4e9" fill-opacity="0.4" stroke="#d1c4e9" stroke-width="0.5"/>
  <path d="M 349.69195544752,483.76684880062817 L 355.34125647021506,474.63076820476914 L 360.9049209220623,464.55972811717004 L 365.9677211815103,454.227822961523 L 370.5174605190592,443.65994320458515 L 374.5431782139672,432.8815477934633 L 378.03517595959227,421.91860282711866 L 380.9850412280902,410.79751899894984 L 382.41348117670714,404.10200710477545 L 397.0173754417476,405.8467851370008 L 395.2341848579526,414.2051160380769 L 392.0999530104764,426.0212676040525 L 388.3897054056488,437.6693966317629 L 384.11238035470814,449.1214417558375 L 379.2782823086431,460.34981399758396 L 373.8990570332623,471.3274632249744 L 367.98766355269,482.0279433190984 L 365.1843578182262,486.56146472708645 L 349.69195544752,483.76684880062817 Z" fill="#c5cae9" fill-opacity="0.4" stroke="#c5cae9" stroke-width="0.5"/>
  <path d="M 411.2613901071109,409.27842311807444 L 409.483328488138,417.61271307591176 L 406.1647300613605,430.12393238227867 L 402.2362325973304,442.4572454700625 L 397.7073001906801,454.58294030709 L 392.588843436099,466.471805033645 L 386.8931931441392,478.0951983327788 L 380.6726223462965,489.3553342418619 L 365.1843578182262,486.56146472708645 L 367.98766355269,482.0279433190984 L 373.8990570332623,471.3274632249744 L 379.2782823086431,460.34981399758396 L 384.11238035470814,449.1214417558375 L 388.3897054056488,437.6693966317629 L 392.0999530104764,426.0212676040525 L 395.2341848579526,414.2051160380769 L 397.0173754417476,405.8467851370008 L 397.6357710235487,405.9206670073636 L 411.2613901071109,409.27842311807444 Z" fill="#bbdefb" fill-opacity="0.4" stroke="#bbdefb" stroke-width="0.5"/>
  <path d="M 425.4894920077104,412.7846488396973 L 423.7324721183234,421.02031011503885 L 420.2295071122446,434.22659716050475 L 416.082759789012,447.2450943083621 L 411.30222002632894,460.04443885834235 L 405.8994045632318,472.59379606970606 L 399.8873292550162,484.86293344187544 L 395.7723019762737,492.3117300126611 L 393.5505951620376,491.77176953654305 L 393.12144299865093,491.6785602091451 L 392.69415056479335,491.57716607401363 L 391.4110769114197,491.30577837548606 L 390.9793240187291,491.22547262470897 L 390.54918478950253,491.13693002245935 L 380.6726223462965,489.3553342418619 L 386.8931931441392,478.0951983327788 L 392.588843436099,466.471805033645 L 397.7073001906801,454.58294030709 L 402.2362325973304,442.4572454700625 L 406.1647300613605,430.12393238227867 L 409.483328488138,417.61271307591176 L 411.2613901071109,409.27842311807444 L 425.4894920077104,412.7846488396973 Z" fill="#ffcdd2" fill-opacity="0.4" stroke="#ffcdd2" stroke-width="0.5"/>
  <path d="M 439.7175939079869,416.29087456132015 L 437.9816157481858,424.4279071528737 L 434.29428416280564,438.3292619374386 L 429.9292869806936,452.0329431466617 L 424.89713986197785,465.50593740959476 L 419.2099656903647,478.7157871070593 L 412.8814653662162,491.6306685496798 L 410.5245168535367,495.89708741118267 L 395.7723019762737,492.3117300126611 L 399.8873292550162,484.86293344187544 L 405.8994045632318,472.59379606970606 L 411.30222002632894,460.04443885834235 L 416.082759789012,447.2450943083621 L 420.2295071122446,434.22659716050475 L 423.7324721183234,421.02031011503885 L 425.4894920077104,412.7846488396973 L 439.7175939079869,416.29087456132015 Z" fill="#f8bbd9" fill-opacity="0.4" stroke="#f8bbd9" stroke-width="0.5"/>
  <path d="M 453.9456958085864,419.797100282943 L 452.2307593783712,427.8355041920008 L 448.35906121368976,442.43192671566476 L 443.7758141723752,456.82079198366904 L 438.4920596979498,470.9674359608472 L 432.5205268174975,484.8377781431203 L 425.87560147709314,498.39840365877643 L 425.27673173112277,499.4824448097043 L 410.5245168535367,495.89708741118267 L 412.8814653662162,491.6306685496798 L 419.2099656903647,478.7157871070593 L 424.89713986197785,465.50593740959476 L 429.9292869806936,452.0329431466617 L 434.29428416280564,438.3292619374386 L 437.9816157481858,424.4279071528737 L 439.7175939079869,416.29087456132015 L 453.9456958085864,419.797100282943 Z" fill="#e1bee7" fill-opacity="0.4" stroke="#e1bee7" stroke-width="0.5"/>
  <path d="M 468.1737977091859,423.30332600456586 L 466.4799030085566,431.24310123112787 L 462.4238382645739,446.53459149389084 L 457.62234136405675,461.6086408219686 L 452.08697953359865,476.4289345133918 L 445.8310879446304,490.95976917918136 L 439.91189622491356,503.03935444968823 L 425.27673173112277,499.4824448097043 L 425.87560147709314,498.39840365877643 L 432.5205268174975,484.8377781431203 L 438.4920596979498,470.9674359608472 L 443.7758141723752,456.82079198366904 L 448.35906121368976,442.43192671566476 L 452.2307593783712,427.8355041920008 L 453.9456958085864,419.797100282943 L 468.1737977091859,423.30332600456586 Z" fill="#d1c4e9" fill-opacity="0.4" stroke="#d1c4e9" stroke-width="0.5"/>
  <path d="M 482.4018996097854,426.8095517261888 L 480.72904663874203,434.65069826896274 L 476.488615315458,450.63725627082476 L 471.46886855573837,466.39648966026823 L 465.68189936924756,481.89043306464424 L 459.1416490717632,497.0817602152424 L 455.14079390922535,505.2465018528264 L 452.9358792049775,506.20468481704796 L 439.91189622491356,503.03935444968823 L 445.8310879446304,490.95976917918136 L 452.08697953359865,476.4289345133918 L 457.62234136405675,461.6086408219686 L 462.4238382645739,446.53459149389084 L 466.4799030085566,431.24310123112787 L 468.1737977091859,423.30332600456586 L 482.4018996097854,426.8095517261888 Z" fill="#c5cae9" fill-opacity="0.4" stroke="#c5cae9" stroke-width="0.5"/>
  <path d="M 496.63000151006185,430.3157774478116 L 494.9781902686044,438.05829530808984 L 490.5533923663421,454.73992104905085 L 485.3153957474199,471.18433849856785 L 479.2768192052195,487.35193161589666 L 475.3545958172015,496.4622524656901 L 455.14079390922535,505.2465018528264 L 459.1416490717632,497.0817602152424 L 465.68189936924756,481.89043306464424 L 471.46886855573837,466.39648966026823 L 476.488615315458,450.63725627082476 L 480.72904663874203,434.65069826896274 L 482.4018996097854,426.8095517261888 L 496.63000151006185,430.3157774478116 Z" fill="#bbdefb" fill-opacity="0.4" stroke="#bbdefb" stroke-width="0.5"/>
  <path d="M 510.8581034106614,433.82200316943454 L 509.2273338987898,441.46589234592466 L 504.61816941690313,458.84258582727693 L 499.16192293910154,475.9721873368674 L 494.6389571719053,488.08190718446644 L 475.3545958172015,496.4622524656901 L 479.2768192052195,487.35193161589666 L 485.3153957474199,471.18433849856785 L 490.5533923663421,454.73992104905085 L 494.9781902686044,438.05829530808984 L 496.63000151006185,430.3157774478116 L 510.8581034106614,433.82200316943454 Z" fill="#ffcdd2" fill-opacity="0.4" stroke="#ffcdd2" stroke-width="0.5"/>
  <path d="M 525.0862053109379,437.3282288910574 L 523.4764775289752,444.8734893850518 L 518.6829464677872,462.94525060421086 L 513.2527872178613,479.9929526220492 L 494.6389571719053,488.08190718446644 L 499.16192293910154,475.9721873368674 L 504.61816941690313,458.84258582727693 L 509.2273338987898,441.46589234592466 L 510.8581034106614,433.82200316943454 L 525.0862053109379,437.3282288910574 Z" fill="#f8bbd9" fill-opacity="0.4" stroke="#f8bbd9" stroke-width="0.5"/>
  <path d="M 539.3143072115374,440.83445461268025 L 537.7256211588376,448.28108642288663 L 532.7477235186714,467.04791538243694 L 531.0939786479403,472.2397612336528 L 513.2527872178613,479.9929526220492 L 518.6829464677872,462.94525060421086 L 523.4764775289752,444.8734893850518 L 525.0862053109379,437.3282288910574 L 539.3143072115374,440.83445461268025 Z" fill="#e1bee7" fill-opacity="0.4" stroke="#e1bee7" stroke-width="0.5"/>
  <path d="M 553.5424091121369,444.3406803343031 L 551.9747647890231,451.6886834620137 L 548.533870683453,464.66096128163946 L 531.0939786479403,472.2397612336528 L 532.7477235186714,467.04791538243694 L 537.7256211588376,448.28108642288663 L 539.3143072115374,440.83445461268025 L 553.5424091121369,444.3406803343031 Z" fill="#d1c4e9" fill-opacity="0.4" stroke="#d1c4e9" stroke-width="0.5"/>
  <path d="M 567.7705110127364,447.84690605592596 L 566.2239084192084,455.0962805011408 L 565.6611154547875,457.2180274844493 L 548.533870683453,464.66096128163946 L 551.9747647890231,451.6886834620137 L 553.5424091121369,444.3406803343031 L 567.7705110127364,447.84690605592596 Z" fill="#c5cae9" fill-opacity="0.4" stroke="#c5cae9" stroke-width="0.5"/>
  <path d="M 581.9986129126897,451.35313177625665 L 581.9036384904933,451.7983044104848 L 579.819213019477,452.2319536997374 L 579.4539302477668,452.3173514045674 L 579.0867429619559,452.39414813912657 L 577.9961590879977,452.6503299594249 L 577.9660985731497,452.6581744553274 L 577.9357029189908,452.6645989508487 L 577.2703147751852,452.83974397343997 L 576.6045565899149,453.0134781033689 L 576.5749171975506,453.0227881498776 L 576.5448733891252,453.0306963507076 L 575.4688317061763,453.3423638149975 L 575.439212107723,453.35173667607916 L 575.4091851559435,453.3597085430693 L 574.7536340351027,453.5686818086681 L 574.097641039347,453.7762650060783 L 574.0685170488306,453.7870799325669 L 574.0389174012956,453.79651555782414 L 572.9802388763686,454.1628515933587 L 572.9511378405863,454.1737282489373 L 572.9215582670558,454.18322660089507 L 572.2775627471567,454.42548026883503 L 571.633054773659,454.6663683087522 L 571.6045224989656,454.678659776362 L 571.5754446020618,454.68959809383404 L 570.5369046810197,455.1096423105173 L 570.192696661484,455.2587901789968 L 569.8450813067315,455.3998143821551 L 565.6611154547875,457.2180274844493 L 566.2239084192084,455.0962805011408 L 567.7705110127364,447.84690605592596 L 581.9986129126897,451.35313177625665 Z" fill="#bbdefb" fill-opacity="0.4" stroke="#bbdefb" stroke-width="0.5"/>
  <path d="M 582.9346743321354,451.5838050351233 L 581.9036384904933,451.7983044104848 L 581.9986129126897,451.35313177625665 L 582.9346743321354,451.5838050351233 Z" fill="#ffcdd2" fill-opacity="0.4" stroke="#ffcdd2" stroke-width="0.5"/>
  <path d="" fill="#f8bbd9" fill-opacity="0.4" stroke="#f8bbd9" stroke-width="0.5"/>
  <path d="M 101.63619273529466,448.3561832226389 L 118.2750229984118,422.8681165131773" fill="none" stroke="#4caf50" stroke-width="1.5"/>
  <path d="M 114.46208297043312,455.5107023192615 L 139.82369733502873,416.6607045403664" fill="none" stroke="#4caf50" stroke-width="1.5"/>
  <path d="M 131.95850511391956,455.5107023192615 L 161.37237167035337,410.45329256755554" fill="none" stroke="#4caf50" stroke-width="1.5"/>
  <path d="M 148.1006617672075,457.5852237032035 L 182.9210460069703,404.24588059474456" fill="none" stroke="#4caf50" stroke-width="1.5"/>
  <path d="M 164.4250090080225,459.3806578072752 L 203.2260160762766,399.9436276275614" fill="none" stroke="#4caf50" stroke-width="1.5"/>
  <path d="M 181.04170702692616,460.7282565770756 L 222.3183011314087,397.3415740654074" fill="none" stroke="#4caf50" stroke-width="1.5"/>
  <path d="M 197.65840504550675,462.0758553481684 L 240.00739230502265,394.93075930199973" fill="none" stroke="#4caf50" stroke-width="1.5"/>
  <path d="M 214.27510306344124,463.4234541179688 L 256.6702967216652,392.65980170541985" fill="none" stroke="#4caf50" stroke-width="1.5"/>
  <path d="M 230.89180108234487,464.77105288776926 L 272.59368789551377,390.9814545055069" fill="none" stroke="#4caf50" stroke-width="1.5"/>
  <path d="M 247.50849910027935,466.11865165886195 L 287.2812427059422,392.73622775400884" fill="none" stroke="#4caf50" stroke-width="1.5"/>
  <path d="M 263.61969562791546,468.24059907789155 L 301.96879751701664,394.4910010038029" fill="none" stroke="#4caf50" stroke-width="1.5"/>
  <path d="M 279.27283976136187,471.0642106022615 L 316.65635232776805,396.24577425230484" fill="none" stroke="#4caf50" stroke-width="1.5"/>
  <path d="M 294.9259838954543,473.8878221266315 L 331.29985124922706,397.99528399004845" fill="none" stroke="#4caf50" stroke-width="1.5"/>
  <path d="M 310.57912802890064,476.71143365100147 L 345.9037455142675,399.740062023566" fill="none" stroke="#4caf50" stroke-width="1.5"/>
  <path d="M 326.2322721629931,479.5350451766637 L 360.5076397789849,401.4848400557913" fill="none" stroke="#4caf50" stroke-width="1.5"/>
  <path d="M 341.8854162964394,482.3586567010337 L 375.11153404434845,403.22961808801665" fill="none" stroke="#4caf50" stroke-width="1.5"/>
  <path d="M 357.4381566328731,485.1641567638573 L 389.7154283093889,404.974396120242" fill="none" stroke="#4caf50" stroke-width="1.5"/>
  <path d="M 372.93055900422536,487.9587726890233 L 404.1473391569727,407.5253102579091" fill="none" stroke="#4caf50" stroke-width="1.5"/>
  <path d="M 388.28089420129936,490.72776165370374 L 418.3754410575722,411.031535979532" fill="none" stroke="#4caf50" stroke-width="1.5"/>
  <path d="M 403.14840941506674,494.10440871127577 L 432.6035429578487,414.53776170115486" fill="none" stroke="#4caf50" stroke-width="1.5"/>
  <path d="M 417.9006242923297,497.6897661110896 L 446.83164485844816,418.0439874227777" fill="none" stroke="#4caf50" stroke-width="1.5"/>
  <path d="M 432.62454922154024,501.2682479610288 L 461.0597467587246,421.55021314310835" fill="none" stroke="#4caf50" stroke-width="1.5"/>
  <path d="M 447.19924322861,504.8104609383477 L 475.28784865932414,425.0564388647312" fill="none" stroke="#4caf50" stroke-width="1.5"/>
  <path d="M 465.5024785035994,500.74365661977754 L 489.5159505596006,428.5626645863541" fill="none" stroke="#4caf50" stroke-width="1.5"/>
  <path d="M 485.1627375339751,492.199958648785 L 503.74405246020007,432.068890307977" fill="none" stroke="#4caf50" stroke-width="1.5"/>
  <path d="M 503.97104123517425,484.02649227131997 L 517.9721543607995,435.5751160295998" fill="none" stroke="#4caf50" stroke-width="1.5"/>
  <path d="M 522.1733829332238,476.1163569272049 L 532.200256261076,439.0813417512227" fill="none" stroke="#4caf50" stroke-width="1.5"/>
  <path d="M 539.9702482976242,468.38242817958843 L 546.4283581616755,442.58756747284554" fill="none" stroke="#4caf50" stroke-width="1.5"/>
  <path d="M 557.0974930689587,460.93949438239827 L 560.6564600622751,446.09379319446845" fill="none" stroke="#4caf50" stroke-width="1.5"/>
  <path d="M 573.9853118422232,453.8150647662196 L 574.8845619625515,449.6000189160913" fill="none" stroke="#4caf50" stroke-width="1.5"/>
  <circle cx="101.63619273529466" cy="448.3561832226389" r="2" fill="#1b5e20"/>
  <circle cx="106.6471705278407" cy="440.68013383767146" r="2" fill="#1b5e20"/>
  <circle cx="111.65815931284007" cy="433.0040855666163" r="2" fill="#1b5e20"/>
  <circle cx="116.66915908996975" cy="425.3280384081812" r="2" fill="#1b5e20"/>
  <circle cx="114.46208297043312" cy="455.5107023192615" r="2" fill="#1b5e20"/>
  <circle cx="119.47305115645494" cy="447.83465202197146" r="2" fill="#1b5e20"/>
  <circle cx="124.48403033428399" cy="440.15860284117826" r="2" fill="#1b5e20"/>
  <circle cx="129.49502050456638" cy="432.4825547717128" r="2" fill="#1b5e20"/>
  <circle cx="134.50602166697908" cy="424.80650782003636" r="2" fill="#1b5e20"/>
  <circle cx="139.51703382152206" cy="417.1304619822722" r="2" fill="#1b5e20"/>
  <circle cx="131.95850511391956" cy="455.5107023192615" r="2" fill="#1b5e20"/>
  <circle cx="136.96946911501692" cy="447.83465117296873" r="2" fill="#1b5e20"/>
  <circle cx="141.98044410856758" cy="440.15860114317275" r="2" fill="#1b5e20"/>
  <circle cx="146.99143009424856" cy="432.4825522234123" r="2" fill="#1b5e20"/>
  <circle cx="152.00242707205982" cy="424.8065044214409" r="2" fill="#1b5e20"/>
  <circle cx="157.01343504232443" cy="417.13045773725844" r="2" fill="#1b5e20"/>
  <circle cx="148.1006617672075" cy="457.5852237032035" r="2" fill="#1b5e20"/>
  <circle cx="153.11162001169149" cy="449.90917168852434" r="2" fill="#1b5e20"/>
  <circle cx="158.12258924830576" cy="442.23312079163424" r="2" fill="#1b5e20"/>
  <circle cx="163.13356947672725" cy="434.5570710060719" r="2" fill="#1b5e20"/>
  <circle cx="168.14456069792513" cy="426.88102233959086" r="2" fill="#1b5e20"/>
  <circle cx="173.1555629112533" cy="419.204974787022" r="2" fill="#1b5e20"/>
  <circle cx="178.16657611638874" cy="411.52892835224225" r="2" fill="#1b5e20"/>
  <circle cx="164.4250090080225" cy="459.3806578072752" r="2" fill="#1b5e20"/>
  <circle cx="169.43596299133972" cy="451.7046051904115" r="2" fill="#1b5e20"/>
  <circle cx="174.44692796678723" cy="444.02855369004453" r="2" fill="#1b5e20"/>
  <circle cx="179.4579039346881" cy="436.35250330229763" r="2" fill="#1b5e20"/>
  <circle cx="184.46889089471927" cy="428.6764540297552" r="2" fill="#1b5e20"/>
  <circle cx="189.47988884655763" cy="421.0004058737096" r="2" fill="#1b5e20"/>
  <circle cx="194.49089779084937" cy="413.3243588341607" r="2" fill="#1b5e20"/>
  <circle cx="199.50191772759445" cy="405.64831290981635" r="2" fill="#1b5e20"/>
  <circle cx="181.04170702692616" cy="460.7282565770756" r="2" fill="#1b5e20"/>
  <circle cx="186.04166297634765" cy="453.0499750669733" r="2" fill="#1b5e20"/>
  <circle cx="191.04162989690053" cy="445.3716946630297" r="2" fill="#1b5e20"/>
  <circle cx="196.0416077889078" cy="437.69341537041396" r="2" fill="#1b5e20"/>
  <circle cx="201.04159665204645" cy="430.01513719041816" r="2" fill="#1b5e20"/>
  <circle cx="206.04159648663952" cy="422.3368601178735" r="2" fill="#1b5e20"/>
  <circle cx="211.0416072920409" cy="414.6585841592412" r="2" fill="#1b5e20"/>
  <circle cx="216.0416290688967" cy="406.9803093106443" r="2" fill="#1b5e20"/>
  <circle cx="221.04166181752998" cy="399.30203556949857" r="2" fill="#1b5e20"/>
  <circle cx="197.65840504550675" cy="462.0758553481684" r="2" fill="#1b5e20"/>
  <circle cx="202.5186725990559" cy="454.3697425046264" r="2" fill="#1b5e20"/>
  <circle cx="207.3789508562424" cy="446.6636307078002" r="2" fill="#1b5e20"/>
  <circle cx="212.23923981609707" cy="438.95751995898195" r="2" fill="#1b5e20"/>
  <circle cx="217.09953947991212" cy="431.2514102594639" r="2" fill="#1b5e20"/>
  <circle cx="221.95984984671844" cy="423.54530160924605" r="2" fill="#1b5e20"/>
  <circle cx="226.82017091748514" cy="415.8391940109129" r="2" fill="#1b5e20"/>
  <circle cx="231.68050269092" cy="408.13308746058766" r="2" fill="#1b5e20"/>
  <circle cx="236.54084516896143" cy="400.4269819582704" r="2" fill="#1b5e20"/>
  <circle cx="214.27510306344124" cy="463.4234541179688" r="2" fill="#1b5e20"/>
  <circle cx="218.91688544737292" cy="455.6755806088124" r="2" fill="#1b5e20"/>
  <circle cx="223.55867810914833" cy="447.9277080610839" r="2" fill="#1b5e20"/>
  <circle cx="228.20048104812136" cy="440.1798364644451" r="2" fill="#1b5e20"/>
  <circle cx="232.84229426493812" cy="432.4319658253574" r="2" fill="#1b5e20"/>
  <circle cx="237.48411775959863" cy="424.68409614640524" r="2" fill="#1b5e20"/>
  <circle cx="242.12595153210285" cy="416.93622742629634" r="2" fill="#1b5e20"/>
  <circle cx="246.76779558212777" cy="409.18835965856954" r="2" fill="#1b5e20"/>
  <circle cx="251.40964990967333" cy="401.4404928509782" r="2" fill="#1b5e20"/>
  <circle cx="256.05151451506265" cy="393.6926269970612" r="2" fill="#1b5e20"/>
  <circle cx="230.89180108234487" cy="464.77105288776926" r="2" fill="#1b5e20"/>
  <circle cx="235.2948493227403" cy="456.97998149478985" r="2" fill="#1b5e20"/>
  <circle cx="239.69790736608067" cy="449.1889109663201" r="2" fill="#1b5e20"/>
  <circle cx="244.10097521333515" cy="441.3978412933143" r="2" fill="#1b5e20"/>
  <circle cx="248.50405286353455" cy="433.6067724835259" r="2" fill="#1b5e20"/>
  <circle cx="252.90714031732503" cy="425.81570453824713" r="2" fill="#1b5e20"/>
  <circle cx="257.3102375743835" cy="418.02463745360126" r="2" fill="#1b5e20"/>
  <circle cx="261.713344635033" cy="410.2335712295884" r="2" fill="#1b5e20"/>
  <circle cx="266.1164614992736" cy="402.44250586362386" r="2" fill="#1b5e20"/>
  <circle cx="270.51958816710527" cy="394.65144135958457" r="2" fill="#1b5e20"/>
  <circle cx="247.50849910027935" cy="466.11865165886195" r="2" fill="#1b5e20"/>
  <circle cx="251.74655025470548" cy="458.29918826110963" r="2" fill="#1b5e20"/>
  <circle cx="255.98461087932432" cy="450.4797256619627" r="2" fill="#1b5e20"/>
  <circle cx="260.22268097413587" cy="442.6602638588365" r="2" fill="#1b5e20"/>
  <circle cx="264.4607605397863" cy="434.84080285302343" r="2" fill="#1b5e20"/>
  <circle cx="268.6988495756294" cy="427.021342647108" r="2" fill="#1b5e20"/>
  <circle cx="272.93694808166526" cy="419.20188324109006" r="2" fill="#1b5e20"/>
  <circle cx="277.1750560585399" cy="411.38242463109293" r="2" fill="#1b5e20"/>
  <circle cx="281.4131735059304" cy="403.56296681582444" r="2" fill="#1b5e20"/>
  <circle cx="285.6513004235136" cy="395.74350980174574" r="2" fill="#1b5e20"/>
  <circle cx="263.61969562791546" cy="468.24059907789155" r="2" fill="#1b5e20"/>
  <circle cx="267.69930253119327" cy="460.39498322572166" r="2" fill="#1b5e20"/>
  <circle cx="271.7789185812803" cy="452.54936811012954" r="2" fill="#1b5e20"/>
  <circle cx="275.85854377817657" cy="444.70375373628406" r="2" fill="#1b5e20"/>
  <circle cx="279.938178121559" cy="436.85814009772406" r="2" fill="#1b5e20"/>
  <circle cx="284.0178216117507" cy="429.01252720220305" r="2" fill="#1b5e20"/>
  <circle cx="288.0974742493978" cy="421.1669150458442" r="2" fill="#1b5e20"/>
  <circle cx="292.17713603353116" cy="413.3213036273553" r="2" fill="#1b5e20"/>
  <circle cx="296.25680696479674" cy="405.47569295061317" r="2" fill="#1b5e20"/>
  <circle cx="300.3364870435177" cy="397.6300830117409" r="2" fill="#1b5e20"/>
  <circle cx="279.27283976136187" cy="471.0642106022615" r="2" fill="#1b5e20"/>
  <circle cx="283.20461876508665" cy="463.1951672675487" r="2" fill="#1b5e20"/>
  <circle cx="287.13640661097475" cy="455.3261246164317" r="2" fill="#1b5e20"/>
  <circle cx="291.068203298057" cy="447.45708265407944" r="2" fill="#1b5e20"/>
  <circle cx="295.00000882697947" cy="439.58804137661525" r="2" fill="#1b5e20"/>
  <circle cx="298.9318231977421" cy="431.7190007879159" r="2" fill="#1b5e20"/>
  <circle cx="302.863646410022" cy="423.849960886689" r="2" fill="#1b5e20"/>
  <circle cx="306.7954784641421" cy="415.98092166905803" r="2" fill="#1b5e20"/>
  <circle cx="310.7273193604255" cy="408.11188314148404" r="2" fill="#1b5e20"/>
  <circle cx="314.659169097903" cy="400.2428452949214" r="2" fill="#1b5e20"/>
  <circle cx="294.9259838954543" cy="473.8878221266315" r="2" fill="#1b5e20"/>
  <circle cx="298.70832770659024" cy="465.9960420797188" r="2" fill="#1b5e20"/>
  <circle cx="302.49068004781316" cy="458.10426266729667" r="2" fill="#1b5e20"/>
  <circle cx="306.273040919123" cy="450.2124838906575" r="2" fill="#1b5e20"/>
  <circle cx="310.05541032051974" cy="442.3207057472167" r="2" fill="#1b5e20"/>
  <circle cx="313.8377882523265" cy="434.4289282434355" r="2" fill="#1b5e20"/>
  <circle cx="317.62017471422024" cy="426.53715137414497" r="2" fill="#1b5e20"/>
  <circle cx="321.40256970684703" cy="418.645375139345" r="2" fill="#1b5e20"/>
  <circle cx="325.18497322956074" cy="410.75359954032797" r="2" fill="#1b5e20"/>
  <circle cx="328.96738528268446" cy="402.8618245745093" r="2" fill="#1b5e20"/>
  <circle cx="310.57912802890064" cy="476.71143365100147" r="2" fill="#1b5e20"/>
  <circle cx="314.2109536006845" cy="468.7977048026191" r="2" fill="#1b5e20"/>
  <circle cx="317.84278738595606" cy="460.88397653703765" r="2" fill="#1b5e20"/>
  <circle cx="321.4746293843923" cy="452.9702488620107" r="2" fill="#1b5e20"/>
  <circle cx="325.1064795963163" cy="445.0565217684924" r="2" fill="#1b5e20"/>
  <circle cx="328.73833802205115" cy="437.1427952616518" r="2" fill="#1b5e20"/>
  <circle cx="332.37020466095066" cy="429.2290693453657" r="2" fill="#1b5e20"/>
  <circle cx="336.002079513984" cy="421.31534400929604" r="2" fill="#1b5e20"/>
  <circle cx="339.6339625805051" cy="413.4016192611963" r="2" fill="#1b5e20"/>
  <circle cx="343.265853860837" cy="405.4878950997743" r="2" fill="#1b5e20"/>
  <circle cx="326.2322721629931" cy="479.5350451766637" r="2" fill="#1b5e20"/>
  <circle cx="329.7165556693788" cy="471.600721856766" r="2" fill="#1b5e20"/>
  <circle cx="333.2008470762067" cy="463.66639907314845" r="2" fill="#1b5e20"/>
  <circle cx="336.68514638347676" cy="455.73207683098025" r="2" fill="#1b5e20"/>
  <circle cx="340.169453590866" cy="447.7977551250923" r="2" fill="#1b5e20"/>
  <circle cx="343.6537686986975" cy="439.8634339606536" r="2" fill="#1b5e20"/>
  <circle cx="347.1380917069712" cy="431.9291133389563" r="2" fill="#1b5e20"/>
  <circle cx="350.6224226160101" cy="423.99479325353934" r="2" fill="#1b5e20"/>
  <circle cx="354.10676142484516" cy="416.0604737044027" r="2" fill="#1b5e20"/>
  <circle cx="357.5911081350916" cy="408.1261546967153" r="2" fill="#1b5e20"/>
  <circle cx="341.8854162964394" cy="482.3586567010337" r="2" fill="#1b5e20"/>
  <circle cx="345.22509426637714" cy="474.40502605980976" r="2" fill="#1b5e20"/>
  <circle cx="348.56477982758827" cy="466.4513959109299" r="2" fill="#1b5e20"/>
  <circle cx="351.9044729791037" cy="458.49776625697854" r="2" fill="#1b5e20"/>
  <circle cx="355.2441737215693" cy="450.54413709666346" r="2" fill="#1b5e20"/>
  <circle cx="358.58388205530844" cy="442.5905084338615" r="2" fill="#1b5e20"/>
  <circle cx="361.92359797999785" cy="434.63688027115694" r="2" fill="#1b5e20"/>
  <circle cx="365.2633214956377" cy="426.68325259950427" r="2" fill="#1b5e20"/>
  <circle cx="368.6030526019047" cy="418.72962542278015" r="2" fill="#1b5e20"/>
  <circle cx="371.94279129976826" cy="410.7759987396922" r="2" fill="#1b5e20"/>
  <circle cx="357.4381566328731" cy="485.1641567638573" r="2" fill="#1b5e20"/>
  <circle cx="360.64631439192186" cy="477.19371468329496" r="2" fill="#1b5e20"/>
  <circle cx="363.854479458597" cy="469.2232730588939" r="2" fill="#1b5e20"/>
  <circle cx="367.06265183192926" cy="461.25283189453086" r="2" fill="#1b5e20"/>
  <circle cx="370.27083151353406" cy="453.2823911837446" r="2" fill="#1b5e20"/>
  <circle cx="373.479018501473" cy="445.31195093428863" r="2" fill="#1b5e20"/>
  <circle cx="376.6872127976844" cy="437.3415111422862" r="2" fill="#1b5e20"/>
  <circle cx="379.89541440087606" cy="429.37107180386056" r="2" fill="#1b5e20"/>
  <circle cx="383.1036233116941" cy="421.4006329241807" r="2" fill="#1b5e20"/>
  <circle cx="386.31183953013846" cy="413.4301945006621" r="2" fill="#1b5e20"/>
  <circle cx="389.52006305588617" cy="405.45975653588937" r="2" fill="#1b5e20"/>
  <circle cx="372.93055900422536" cy="487.9587726890233" r="2" fill="#1b5e20"/>
  <circle cx="376.02913571890133" cy="479.9748648989814" r="2" fill="#1b5e20"/>
  <circle cx="379.1277195031081" cy="471.99095753537927" r="2" fill="#1b5e20"/>
  <circle cx="382.22631035716876" cy="464.00705059950917" r="2" fill="#1b5e20"/>
  <circle cx="385.32490828076027" cy="456.02314408749425" r="2" fill="#1b5e20"/>
  <circle cx="388.42351327420573" cy="448.03923800450355" r="2" fill="#1b5e20"/>
  <circle cx="391.52212533718205" cy="440.05533234924485" r="2" fill="#1b5e20"/>
  <circle cx="394.6207444700122" cy="432.0714271191336" r="2" fill="#1b5e20"/>
  <circle cx="397.7193706730194" cy="424.08752231287764" r="2" fill="#1b5e20"/>
  <circle cx="400.8180039455574" cy="416.1036179343536" r="2" fill="#1b5e20"/>
  <circle cx="403.91664428794934" cy="408.1197139835616" r="2" fill="#1b5e20"/>
  <circle cx="388.28089420129936" cy="490.72776165370374" r="2" fill="#1b5e20"/>
  <circle cx="391.2993139975116" cy="482.7343140165334" r="2" fill="#1b5e20"/>
  <circle cx="394.3177406888021" cy="474.740866779958" r="2" fill="#1b5e20"/>
  <circle cx="397.3361742754939" cy="466.7474199504387" r="2" fill="#1b5e20"/>
  <circle cx="400.3546147569408" cy="458.753973525391" r="2" fill="#1b5e20"/>
  <circle cx="403.373062133466" cy="450.760527504815" r="2" fill="#1b5e20"/>
  <circle cx="406.39151640539245" cy="442.76708189258727" r="2" fill="#1b5e20"/>
  <circle cx="409.4099775720741" cy="434.77363667837005" r="2" fill="#1b5e20"/>
  <circle cx="412.428445634157" cy="426.78019187379334" r="2" fill="#1b5e20"/>
  <circle cx="415.44692059099515" cy="418.7867474736883" r="2" fill="#1b5e20"/>
  <circle cx="403.14840941506674" cy="494.10440871127577" r="2" fill="#1b5e20"/>
  <circle cx="406.1099558112421" cy="486.10435067928904" r="2" fill="#1b5e20"/>
  <circle cx="409.07150897811744" cy="478.10429303626705" r="2" fill="#1b5e20"/>
  <circle cx="412.03306891569275" cy="470.104235783502" r="2" fill="#1b5e20"/>
  <circle cx="414.9946356242911" cy="462.104178915825" r="2" fill="#1b5e20"/>
  <circle cx="417.95620910358946" cy="454.10412244098944" r="2" fill="#1b5e20"/>
  <circle cx="420.91778935358775" cy="446.1040663615798" r="2" fill="#1b5e20"/>
  <circle cx="423.87937637428604" cy="438.1040106633814" r="2" fill="#1b5e20"/>
  <circle cx="426.84097016568427" cy="430.10395535802456" r="2" fill="#1b5e20"/>
  <circle cx="429.80257072842863" cy="422.1039004429246" r="2" fill="#1b5e20"/>
  <circle cx="417.9006242923297" cy="497.6897661110896" r="2" fill="#1b5e20"/>
  <circle cx="420.80879425324076" cy="489.6836233565478" r="2" fill="#1b5e20"/>
  <circle cx="423.71697086725777" cy="481.67748097675604" r="2" fill="#1b5e20"/>
  <circle cx="426.6251541350269" cy="473.6713389742988" r="2" fill="#1b5e20"/>
  <circle cx="429.5333440568712" cy="465.6651973465917" r="2" fill="#1b5e20"/>
  <circle cx="432.44154063214455" cy="457.6590560949269" r="2" fill="#1b5e20"/>
  <circle cx="435.34974386117" cy="449.6529152205966" r="2" fill="#1b5e20"/>
  <circle cx="438.2579537442706" cy="441.6467747184319" r="2" fill="#1b5e20"/>
  <circle cx="441.16617028112336" cy="433.64063459618626" r="2" fill="#1b5e20"/>
  <circle cx="444.0743934720512" cy="425.63449484610624" r="2" fill="#1b5e20"/>
  <circle cx="432.62454922154024" cy="501.2682479610288" r="2" fill="#1b5e20"/>
  <circle cx="435.4823002540645" cy="493.25646339974753" r="2" fill="#1b5e20"/>
  <circle cx="438.34005782920815" cy="485.2446792015861" r="2" fill="#1b5e20"/>
  <circle cx="441.1978219476173" cy="477.23289536654465" r="2" fill="#1b5e20"/>
  <circle cx="444.05559260896877" cy="469.22111188945405" r="2" fill="#1b5e20"/>
  <circle cx="446.9133698132626" cy="461.20932877936013" r="2" fill="#1b5e20"/>
  <circle cx="449.7711535604989" cy="453.19754603497057" r="2" fill="#1b5e20"/>
  <circle cx="452.6289438506775" cy="445.1857636498242" r="2" fill="#1b5e20"/>
  <circle cx="455.48674068444467" cy="437.1739816277977" r="2" fill="#1b5e20"/>
  <circle cx="458.34454406083114" cy="429.1621999663066" r="2" fill="#1b5e20"/>
  <circle cx="447.19924322861" cy="504.8104609383477" r="2" fill="#1b5e20"/>
  <circle cx="450.0222365358658" cy="496.79484679834627" r="2" fill="#1b5e20"/>
  <circle cx="452.8452363094986" cy="488.77923301112685" r="2" fill="#1b5e20"/>
  <circle cx="455.6682425495086" cy="480.76361957927384" r="2" fill="#1b5e20"/>
  <circle cx="458.49125525589557" cy="472.7480064989105" r="2" fill="#1b5e20"/>
  <circle cx="461.31427442898274" cy="464.73239377649816" r="2" fill="#1b5e20"/>
  <circle cx="464.13730006812386" cy="456.71678140686777" r="2" fill="#1b5e20"/>
  <circle cx="466.9603321742882" cy="448.7011693887271" r="2" fill="#1b5e20"/>
  <circle cx="469.78337074682963" cy="440.6855577285374" r="2" fill="#1b5e20"/>
  <circle cx="472.6064157863943" cy="432.6699464185451" r="2" fill="#1b5e20"/>
  <circle cx="465.5024785035994" cy="500.74365661977754" r="2" fill="#1b5e20"/>
  <circle cx="468.1744690073861" cy="492.71196827978946" r="2" fill="#1b5e20"/>
  <circle cx="470.8464656438285" cy="484.6802802564006" r="2" fill="#1b5e20"/>
  <circle cx="473.5184684132496" cy="476.6485925509032" r="2" fill="#1b5e20"/>
  <circle cx="476.19047731532635" cy="468.6169051620049" r="2" fill="#1b5e20"/>
  <circle cx="478.86249235070494" cy="460.5852180897059" r="2" fill="#1b5e20"/>
  <circle cx="481.53451351841613" cy="452.55353133788276" r="2" fill="#1b5e20"/>
  <circle cx="484.2065408194291" cy="444.5218448987821" r="2" fill="#1b5e20"/>
  <circle cx="486.8785742534208" cy="436.4901587788652" r="2" fill="#1b5e20"/>
  <circle cx="485.1627375339751" cy="492.199958648785" r="2" fill="#1b5e20"/>
  <circle cx="487.6503033185716" cy="484.1498761629348" r="2" fill="#1b5e20"/>
  <circle cx="490.1378748261832" cy="476.0997939510397" r="2" fill="#1b5e20"/>
  <circle cx="492.6254520561637" cy="468.0497120143921" r="2" fill="#1b5e20"/>
  <circle cx="495.1130350088362" cy="459.99963035040753" r="2" fill="#1b5e20"/>
  <circle cx="497.6006236845239" cy="451.9495489642549" r="2" fill="#1b5e20"/>
  <circle cx="500.08821808258045" cy="443.89946785722645" r="2" fill="#1b5e20"/>
  <circle cx="502.57581820332905" cy="435.84938701510754" r="2" fill="#1b5e20"/>
  <circle cx="503.97104123517425" cy="484.02649227131997" r="2" fill="#1b5e20"/>
  <circle cx="506.3014993929281" cy="475.9618074099223" r="2" fill="#1b5e20"/>
  <circle cx="508.63196292156124" cy="467.8971227901738" r="2" fill="#1b5e20"/>
  <circle cx="510.9624318213967" cy="459.83243840949" r="2" fill="#1b5e20"/>
  <circle cx="513.2929060921113" cy="451.7677542691631" r="2" fill="#1b5e20"/>
  <circle cx="515.6233857337052" cy="443.7030703743622" r="2" fill="#1b5e20"/>
  <circle cx="517.9538707465015" cy="435.63838671862595" r="2" fill="#1b5e20"/>
  <circle cx="522.1733829332238" cy="476.1163569272049" r="2" fill="#1b5e20"/>
  <circle cx="524.3601928791056" cy="468.0391751576245" r="2" fill="#1b5e20"/>
  <circle cx="526.5470078731294" cy="459.96199359867956" r="2" fill="#1b5e20"/>
  <circle cx="528.7338279146488" cy="451.8848122516622" r="2" fill="#1b5e20"/>
  <circle cx="530.9206530036643" cy="443.8076311152802" r="2" fill="#1b5e20"/>
  <circle cx="539.9702482976242" cy="468.38242817958843" r="2" fill="#1b5e20"/>
  <circle cx="541.9957513544294" cy="460.29218137813456" r="2" fill="#1b5e20"/>
  <circle cx="544.0212590946414" cy="452.20193475888675" r="2" fill="#1b5e20"/>
  <circle cx="546.046771517614" cy="444.1116883192605" r="2" fill="#1b5e20"/>
  <circle cx="557.0974930689587" cy="460.93949438239827" r="2" fill="#1b5e20"/>
  <circle cx="559.0385127293708" cy="452.84281184162876" r="2" fill="#1b5e20"/>
  <circle cx="573.9853118422232" cy="453.8150647662196" r="2" fill="#1b5e20"/>

  <g transform="translate(10, 500)">
    <rect x="0" y="0" width="150" height="90" fill="white" fill-opacity="0.9" stroke="#ccc"/>
    <text x="5" y="15" class="label">Legend:</text>
    <rect x="5" y="22" width="12" height="12" fill="#e3f2fd" stroke="#1565c0"/>
    <text x="22" y="32" class="label">Headland</text>
    <line x1="5" y1="45" x2="17" y2="45" stroke="#4caf50" stroke-width="2"/>
    <text x="22" y="48" class="label">Tree rows</text>
    <circle cx="11" cy="60" r="3" fill="#1b5e20"/>
    <text x="22" y="64" class="label">Trees (247)</text>
    <rect x="5" y="72" width="12" height="12" fill="#81c784" fill-opacity="0.5"/>
    <text x="22" y="82" class="label">Ground cover</text>
  </g>
</svg>